<?xml version="1.0" encoding="UTF-8"?>
<svg id="Layer_1_copy" data-name="Layer 1 copy" xmlns="http://www.w3.org/2000/svg" version="1.1" viewBox="0 0 1024 1024">
  <defs>
    <style>
      .cls-1 {
        fill: #1a519a;
      }

      .cls-1, .cls-2, .cls-3 {
        stroke-width: 0px;
      }

      .cls-2 {
        fill: #94c83d;
      }

      .cls-3 {
        fill: #fff;
      }
    </style>
  </defs>
  <path class="cls-1" d="M240.28,862.68c24.76,0,30.84,11.37,30.84,21.49,0,7.63-4.36,23.52-22.89,29.75,9.5,2.8,15.26,9.34,15.26,19.47,0,14.95-12.3,36.75-42.83,36.75h-47.66l21.03-107.46h46.26ZM223,953.95c13.39,0,21.49-9.03,21.49-19.78,0-7.32-5.45-12.15-15.89-12.15h-27.41l-6.39,31.93h28.19ZM209.6,878.88l-5.61,27.88h27.72c7.63,0,19.47-7.01,19.47-17.6,0-5.77-4.05-10.28-14.8-10.28h-26.79Z"/>
  <path class="cls-1" d="M345.73,944.29c-5.76,18.53-22.27,27.72-43.45,27.72-18.69,0-32.4-9.81-32.4-30.52,0-33.02,20.71-55.29,48.9-55.29,21.65,0,31.3,11.06,31.3,27.41,0,2.96-.15,9.19-2.96,19.78h-57.94c-.62,2.65-.78,5.14-.78,7.47,0,11.37,6.23,16.82,17.13,16.82s19.62-3.89,23.83-15.58l16.35,2.18ZM292.16,919.69h39.4c.62-2.8.78-4.36.78-5.92,0-7.94-4.67-13.4-16.04-13.4-12.46,0-20.87,7.79-24.14,19.31Z"/>
  <path class="cls-1" d="M373.84,888.07l3.58-18.69h18.07l-3.58,18.69h25.23l-2.81,14.33h-25.23l-8.72,44.7c-1.71,8.1.78,10.75,8.1,10.75,3.27,0,8.1-.78,12.31-2.19l-1.09,14.18c-5.45,1.09-12.93,2.18-18.69,2.18-12.61,0-22.74-4.2-19.31-21.96l9.34-47.66h-16.04l2.65-14.33h16.2Z"/>
  <path class="cls-1" d="M433.33,888.07l3.58-18.69h18.07l-3.58,18.69h25.23l-2.8,14.33h-25.23l-8.72,44.7c-1.72,8.1.78,10.75,8.1,10.75,3.27,0,8.1-.78,12.3-2.19l-1.09,14.18c-5.45,1.09-12.93,2.18-18.69,2.18-12.62,0-22.74-4.2-19.31-21.96l9.35-47.66h-16.04l2.65-14.33h16.2Z"/>
  <path class="cls-1" d="M545.89,944.29c-5.76,18.53-22.27,27.72-43.45,27.72-18.69,0-32.4-9.81-32.4-30.52,0-33.02,20.71-55.29,48.9-55.29,21.65,0,31.31,11.06,31.31,27.41,0,2.96-.16,9.19-2.96,19.78h-57.94c-.62,2.65-.78,5.14-.78,7.47,0,11.37,6.23,16.82,17.13,16.82s19.62-3.89,23.83-15.58l16.35,2.18ZM492.32,919.69h39.4c.62-2.8.78-4.36.78-5.92,0-7.94-4.67-13.4-16.04-13.4-12.46,0-20.87,7.79-24.14,19.31Z"/>
  <path class="cls-1" d="M610.6,887.14l-3.11,16.35h-2.18c-16.67,0-29.12,9.81-32.71,28.5l-7.47,38.16h-18.07l15.89-82.08h17.75l-3.27,16.67h.47c6.85-13.71,19-17.6,30.84-17.6h1.87Z"/>
  <path class="cls-1" d="M677.84,970.31h-20.25l-14.02-81.45h-.47l-15.89,81.3h-18.53l20.87-107.46h27.72l14.8,85.66,48.12-85.66h27.57l-20.87,107.46h-18.69l15.89-81.3h-.47l-45.79,81.45Z"/>
  <path class="cls-1" d="M808.85,967.82c-4.52,23.36-15.73,34.26-41.58,34.26-17.6,0-29.75-5.92-34.73-10.13l6.54-14.17c8.88,6.54,18.85,9.65,28.34,9.65,13.4,0,20.71-7.47,23.83-19.47l2.65-10.12-.78-.32c-7.16,10.28-18.69,14.49-29.28,14.49-17.91,0-26.63-11.53-23.21-29.28l10.59-54.67h18.07l-10.28,53.26c-1.71,8.88.62,15.58,11.68,15.58,14.95,0,24.14-11.22,26.63-22.58l8.88-46.25h18.07l-15.42,79.74Z"/>
  <circle class="cls-2" cx="499.61" cy="517.55" r="324.42"/>
  <path class="cls-3" d="M707.49,54.8c-8.68,28.46-12.77,52.8-14.88,70.47-5.85,48.97-1.33,87.85,2.25,117.17,1.1,9.02,4.06,31.48,10.5,60.11,5.5,24.45,11.79,45.67,17.67,63.12,0,0,0,0,0,0h0c7.63,20.96,24.02,67.61,29.07,117.32,1.3,12.76,11.59,131.3-65.6,218.5-18.68,21.11-37.41,34.64-47.75,41.48-38.21,25.27-83.31,39.45-131.51,40.79-38.02,1.06-74.55-5.96-107.7-20.31-9.06-3.92-17.87-8.39-26.39-13.39,0,0-27.18-15.97-49.48-38.45-17.85-18.01-59.36-72.68-66.26-151.83-7.36-84.41,28.25-155.24,43.95-234.15,5.79-29.09,9.82-58.13,9.82-58.13.91-6.58,1.6-11.99,2.03-15.51,4.62-3.24,9.56-6.53,14.81-9.8,6.13-3.82,12.09-7.25,17.81-10.33-.42,3.97-1.05,9.68-1.88,16.54-4.67,38.57-10.22,68.06-13.01,82.43-26.09,134.34-54.89,181.2-37.91,249.03,14.7,58.72,58.6,112.8,114,138.07,41.58,18.97,81.36,17.93,100.83,17.22,23.08-.85,68.05-2.94,114.36-31.97,61.48-38.54,83.6-98.32,90.35-120.72,11.3-37.48,9.32-71.62,8.44-88.71-1.51-29.03-7.05-53.41-10.26-67.27-5.3-22.88-8.78-29.79-16.56-56.63-3.18-10.98-6.81-24.08-10.51-39.57-3.38-14.18-5.4-24.47-8.33-39.44-5.09-25.97-7.63-38.96-9.23-51.8-2.75-22.05-2.92-38.64-3.03-54.78-.13-19.2-.24-45.41,4.91-75.82,3.36-19.85,7.52-33.23,10.24-41.1,2.18-6.3,4.27-11.5,5.85-15.22"/>
  <path class="cls-3" d="M617.04,74.2c29.16-17.4,58.32-34.8,87.48-52.2-3.51,12.28-7.02,24.57-10.52,36.85-28.51,17.16-57.02,34.32-85.53,51.49,2.86-12.05,5.72-24.09,8.58-36.14Z"/>
  <path class="cls-3" d="M753.16,111.5c-16.21-29.83-32.43-59.67-48.64-89.5-3.35,11.73-6.7,23.46-10.05,35.19,15.88,29.92,31.77,59.85,47.65,89.77,3.68-11.82,7.36-23.64,11.04-35.46Z"/>
</svg>